<?xml version="1.0" encoding="utf-8"?>
<!-- Generator: Adobe Illustrator 26.5.0, SVG Export Plug-In . SVG Version: 6.00 Build 0)  -->
<svg version="1.1" id="Layer_1" xmlns="http://www.w3.org/2000/svg" xmlns:xlink="http://www.w3.org/1999/xlink" x="0px" y="0px"
	 viewBox="0 0 1800 196.9" style="enable-background:new 0 0 1800 196.9;" xml:space="preserve">
<style type="text/css">
	.st0{fill:#191917;}
</style>
<g>
	<path class="st0" d="M213.6,196.9H21.4v-19.7H0V19.7h21.4V0h213.6v39.4H85.4v118.1h64.1v-39.4h-42.7V78.8h106.8v19.7h21.4v78.8
		h-21.4V196.9z"/>
	<path class="st0" d="M285.8,177.2h-21.4V19.7h21.4V0h213.6v39.4H349.8v39.4h64.1v39.4h-64.1v39.4h149.5v39.4H285.8V177.2z"/>
	<path class="st0" d="M614.2,196.9h-85.4V0h85.4v19.7h21.4v19.7H657v19.7h21.4V0h85.4v196.9h-85.4v-59.1H657v-19.7h-21.4V98.5h-21.4
		V196.9z"/>
	<path class="st0" d="M1006.8,196.9H814.6v-19.7h-21.4V0h85.4v157.5h64.1V0h85.4v177.2h-21.4V196.9z"/>
	<path class="st0" d="M1057.6,0h213.6v39.4h-64.1v118.1h64.1v39.4h-213.6v-39.4h64.1V39.4h-64.1V0z"/>
	<path class="st0" d="M1386.1,196.9h-85.4V0h85.4v19.7h21.4v19.7h21.4v19.7h21.4V0h85.4v196.9h-85.4v-59.1h-21.4v-19.7h-21.4V98.5
		h-21.4V196.9z"/>
	<path class="st0" d="M1586.4,177.2h-21.4V19.7h21.4V0H1800v39.4h-149.5v39.4h64.1v39.4h-64.1v39.4H1800v39.4h-213.6V177.2z"/>
</g>
</svg>
