<?xml version="1.0" encoding="utf-8"?>
<!-- Generator: Adobe Illustrator 27.4.1, SVG Export Plug-In . SVG Version: 6.00 Build 0)  -->
<svg version="1.1" id="Layer_1" xmlns="http://www.w3.org/2000/svg" xmlns:xlink="http://www.w3.org/1999/xlink" x="0px" y="0px"
	 viewBox="0 0 1590.1 197.2" style="enable-background:new 0 0 1590.1 197.2;" xml:space="preserve">
<style type="text/css">
	.st0{fill:#191917;}
</style>
<g>
	<path class="st0" d="M213.9,197.2H21.4v-19.7H0V0h85.5v157.7h64.2V0h85.5v177.5h-21.4L213.9,197.2L213.9,197.2z"/>
	<path class="st0" d="M350.3,197.2h-85.5V0h85.5v19.7h21.4v19.7h21.4v19.7h21.4V0H500v197.2h-85.5V138h-21.4v-19.7h-21.4V98.6h-21.4
		L350.3,197.2L350.3,197.2z"/>
	<path class="st0" d="M722,197.2H529.5V0h128.3h21.4H722v19.7h21.4v19.7h21.4v118.3h-21.4v19.7H722V197.2z M657.8,39.4H615v118.3
		h42.8V138h21.4V59.2h-21.4V39.4z"/>
	<path class="st0" d="M815.6,177.5h-21.4V19.7h21.4V0h213.9v39.4H879.8v39.4H944v39.4h-64.2v39.4h149.7V197H815.6V177.5z"/>
	<path class="st0" d="M1144.5,197.2H1059V19.7h21.4V0h128.3h64.2v19.7h21.4v177.4h-85.5v-78.9h-64.2v79L1144.5,197.2L1144.5,197.2z
		 M1144.5,78.9h64.2V39.4h-64.2V78.9z"/>
	<path class="st0" d="M1516.2,197.2h-192.5V0H1452h21.4h42.8v19.7h21.4v19.7h21.4v118.3h-21.4v19.7h-21.4L1516.2,197.2L1516.2,197.2
		z M1452.1,39.4h-42.8v118.3h42.8V138h21.4V59.2h-21.4V39.4z"/>
</g>
<path class="st0" d="M1563.9,2.2v2.6h-4.4v12.4h-3.2V4.8h-4.5V2.2H1563.9z M1568.6,17.2h-2.9v-15h4.5l2.8,11.7l2.8-11.7h4.5v15h-2.9
	V7.2c0-0.3,0-0.7,0-1.2s0-1,0-1.2l-2.9,12.5h-3l-2.8-12.5c0,0.3,0,0.7,0,1.2s0,1,0,1.2v10.1H1568.6z"/>
</svg>
